HIERARCHY
ROOT root
{
	OFFSET 0.000000 0.000000 0.000000
	CHANNELS 6 Xposition Yposition Zposition Zrotation Yrotation Xrotation
	JOINT lhip
	{
		OFFSET 0.058581 -0.082280 -0.017664
		CHANNELS 3 Zrotation Yrotation Xrotation
		JOINT lknee
		{
			OFFSET 0.043451 -0.386469 0.008037
			CHANNELS 3 Zrotation Yrotation Xrotation
			JOINT lankle
			{
				OFFSET -0.014790 -0.426874 -0.037428
				CHANNELS 3 Zrotation Yrotation Xrotation
				JOINT ltoe
				{
					OFFSET 0.041054 -0.060286 0.122042
					CHANNELS 3 Zrotation Yrotation Xrotation
					End Site
					{
						OFFSET 0.000000 0.000000 0.000000
					}
				}
			}
		}
	}
	JOINT rhip
	{
		OFFSET -0.060310 -0.090513 -0.013543
		CHANNELS 3 Zrotation Yrotation Xrotation
		JOINT rknee
		{
			OFFSET -0.043257 -0.383688 -0.004843
			CHANNELS 3 Zrotation Yrotation Xrotation
			JOINT rankle
			{
				OFFSET 0.019056 -0.420046 -0.034562
				CHANNELS 3 Zrotation Yrotation Xrotation
				JOINT rtoe
				{
					OFFSET -0.034840 -0.062106 0.130323
					CHANNELS 3 Zrotation Yrotation Xrotation
					End Site
					{
						OFFSET 0.000000 0.000000 0.000000
					}
				}
			}
		}
	}
	JOINT lowerback
	{
		OFFSET 0.004439 0.124404 -0.038385
		CHANNELS 3 Zrotation Yrotation Xrotation
		JOINT upperback
		{
			OFFSET 0.004488 0.137956 0.026820
			CHANNELS 3 Zrotation Yrotation Xrotation
			JOINT chest
			{
				OFFSET -0.002265 0.056032 0.002855
				CHANNELS 3 Zrotation Yrotation Xrotation
				JOINT lowerneck
				{
					OFFSET -0.013390 0.211636 -0.033468
					CHANNELS 3 Zrotation Yrotation Xrotation
					JOINT upperneck
					{
						OFFSET 0.010113 0.088937 0.050410
						CHANNELS 3 Zrotation Yrotation Xrotation
						End Site
						{
							OFFSET 0.000000 0.000000 0.000000
						}
					}
				}
				JOINT lclavicle
				{
					OFFSET 0.071702 0.114000 -0.018898
					CHANNELS 3 Zrotation Yrotation Xrotation
					JOINT lshoulder
					{
						OFFSET 0.122921 0.045205 -0.019046
						CHANNELS 3 Zrotation Yrotation Xrotation
						JOINT lelbow
						{
							OFFSET 0.255332 -0.015649 -0.022946
							CHANNELS 3 Zrotation Yrotation Xrotation
							JOINT lwrist
							{
								OFFSET 0.265709 0.012698 -0.007375
								CHANNELS 3 Zrotation Yrotation Xrotation
								End Site
								{
									OFFSET 0.000000 0.000000 0.000000
								}
							}
						}
					}
				}
				JOINT rclavicle
				{
					OFFSET -0.082954 0.112472 -0.023707
					CHANNELS 3 Zrotation Yrotation Xrotation
					JOINT rshoulder
					{
						OFFSET -0.113228 0.046853 -0.008472
						CHANNELS 3 Zrotation Yrotation Xrotation
						JOINT relbow
						{
							OFFSET -0.260127 -0.014369 -0.031269
							CHANNELS 3 Zrotation Yrotation Xrotation
							JOINT rwrist
							{
								OFFSET -0.269108 0.006794 -0.006027
								CHANNELS 3 Zrotation Yrotation Xrotation
								End Site
								{
									OFFSET 0.000000 0.000000 0.000000
								}
							}
						}
					}
				}
			}
		}
	}
}
MOTION
Frames: 5
Frame Time: 0.033333
-2.369712 0.221842 0.981472 92.774017 1.903790 84.658126 2.955931 -0.902565 -0.577011 -4.522526 -0.055305 57.967128 0.837166 12.900705 -5.466145 0.000000 -0.000000 0.000000 4.553427 0.135982 -9.420631 3.436451 -5.742135 23.702490 -2.824104 -5.425821 -18.970513 0.000000 -0.000000 0.000000 2.299470 0.122090 8.192562 5.628505 -0.584778 2.560461 0.751690 -1.445397 1.173158 1.454107 1.719018 -7.163562 -3.571701 -1.931708 2.864177 -28.907010 6.834886 1.813948 -61.581776 -5.546021 11.937312 11.283674 -45.362451 13.695655 -0.731147 -7.357297 -8.856051 31.349085 -5.530360 2.094295 55.777613 -1.559955 8.882193 -24.379412 26.279850 -3.105237 6.606052 2.156129 -2.545807 
-2.325287 0.222221 0.991367 91.181458 0.874107 84.464377 2.119105 -1.741648 -6.436029 -3.346480 3.906861 55.782517 2.174063 12.676045 -9.396558 0.000000 -0.000000 0.000000 3.823641 -0.700850 -3.452377 3.606708 -4.088494 19.100062 -2.049994 -4.307766 -19.351761 0.000000 -0.000000 0.000000 1.772818 1.974002 9.251552 5.040868 -1.013678 0.933328 0.672514 -1.095961 1.789652 1.766943 2.265283 -7.365570 -4.349294 -1.891294 4.202937 -28.946994 7.996623 0.808004 -62.237218 -2.017508 11.178056 10.119124 -40.466091 15.250771 -2.016655 -7.016013 -8.600839 30.930424 -4.510011 0.328911 55.623519 2.346430 10.399836 -23.885414 29.736419 -2.582796 5.279027 2.823184 -1.942855 
-2.273752 0.221863 0.995678 89.190953 -0.037186 83.950421 1.844859 -2.045818 -9.828720 -3.807449 6.182821 49.257322 2.415702 12.085675 -13.597515 0.000000 -0.000000 0.000000 2.630551 -2.057767 3.981883 4.061669 -1.480583 13.155086 -1.478788 -3.209290 -19.350323 0.000000 -0.000000 0.000000 1.341651 3.950868 9.493824 4.321266 -1.537497 0.625021 0.589357 -0.625017 1.702831 2.085451 2.229400 -6.461517 -4.458231 -1.523565 4.001988 -28.609158 9.025273 1.746851 -62.884792 1.707445 9.832292 10.862986 -37.667281 15.830191 -4.462690 -6.839170 -8.675849 29.606997 -3.575325 -0.264768 56.351409 5.177318 11.333154 -24.250528 35.546140 -2.760022 5.730662 3.287491 -3.934768 
-2.215087 0.222001 0.993721 86.418780 -0.562626 83.874977 2.633612 -2.491847 -14.107197 -3.349390 10.592243 38.366843 1.393085 12.395812 -15.729355 0.000000 -0.000000 0.000000 0.755259 -3.214527 11.631659 5.165159 0.842353 7.248240 -0.934485 -1.489428 -19.142678 0.000000 -0.000000 0.000000 1.536792 6.183043 8.018442 3.587571 -1.968933 2.339272 0.175826 0.278362 1.668609 2.840316 2.745270 -5.462458 -5.193208 -2.277817 4.448937 -28.819389 9.269334 1.975512 -63.014913 5.746533 8.680520 12.388649 -33.756615 15.536713 -9.266517 -5.694925 -7.539352 29.210112 -1.585013 0.212513 55.045077 10.978330 11.589850 -25.128622 41.513225 -5.607080 6.054754 6.254267 -6.015051 
-2.178782 0.221769 0.988485 84.729923 -0.612497 83.825787 3.568666 -2.507080 -15.813113 -3.208107 13.106588 30.302728 1.327084 13.228136 -15.042124 0.000000 -0.000000 0.000000 -0.731824 -4.090797 16.063986 6.057503 2.255707 4.395133 -0.581164 0.124906 -18.944257 0.000000 -0.000000 0.000000 1.933943 7.500901 7.380230 3.095931 -2.006164 3.224778 -0.099179 0.725935 1.395233 3.142937 3.180550 -4.777452 -5.212047 -2.780094 4.160851 -28.925744 9.247990 2.202146 -62.953858 8.570374 7.879034 13.492711 -32.587167 15.097010 -12.030099 -3.921949 -6.492670 27.832914 -0.589899 0.453473 55.323452 12.749654 12.102408 -26.544437 45.346034 -6.982468 6.186393 3.000925 -9.143614 
